<svg class="basketball-court" data-name="basketball-court" xmlns="http://www.w3.org/2000/svg" viewBox="0 0 381 252"><polyline class="three-point-line" points="122 252 122 88 259 88 259 252"/><path class="cls-1" d="M381.5,255.5v-124S324.5,4.5,192,4.5,2.5,131.5,2.5,131.5v124" transform="translate(-1.5 -3.5)"/><path class="cls-1" d="M140.23,89.7a51.79,51.79,0,0,0,.41,6" transform="translate(-1.5 -3.5)"/><path class="cls-2" d="M143.28,106.77a50.89,50.89,0,0,0,37.21,32.89c27,5.83,53.89-11.23,61-38.32" transform="translate(-1.5 -3.5)"/><path class="cls-1" d="M242.6,95.75a53.42,53.42,0,0,0,.56-6" transform="translate(-1.5 -3.5)"/><path class="cls-1" d="M243.13,90.45c1.24-24.68-15.36-45.85-40.19-51.2-27.75-6-55.27,10.07-61.47,38.37a54,54,0,0,0-1.24,12.43" transform="translate(-1.5 -3.5)"/><line class="cls-1" x1="259.5" y1="126.5" x2="266.5" y2="126.5"/><line class="cls-1" x1="259.5" y1="153.5" x2="266.5" y2="153.5"/><line class="cls-1" x1="259.5" y1="180.5" x2="266.5" y2="180.5"/><line class="cls-1" x1="259.5" y1="190.5" x2="266.5" y2="190.5"/><line class="cls-1" x1="115.5" y1="126.5" x2="122.5" y2="126.5"/><line class="cls-1" x1="115.5" y1="153.5" x2="122.5" y2="153.5"/><line class="cls-1" x1="115.5" y1="180.5" x2="122.5" y2="180.5"/><line class="cls-1" x1="115.5" y1="190.5" x2="122.5" y2="190.5"/></svg>