<svg xmlns="http://www.w3.org/2000/svg" viewBox="0 0 1398 340"><filter id="b"><feGaussianBlur stdDeviation="12" /></filter><path fill="#f2f2f2" d="M0 0h1398v338H0z"/><g filter="url(#b)" transform="translate(2.7 2.7) scale(5.46094)" fill-opacity=".5"><path fill="#bebebf" d="M177 4h27v55h-27z"/><path fill="#c9c8c9" d="M114.5-.9l8.6 49.3-25.6 4.5L89 3.6z"/><path fill="#c5c5c6" d="M5 4h37v37H5z"/><ellipse fill="#fff" rx="1" ry="1" transform="matrix(.6921 109.9675 -27.34608 .17211 150.3 35)"/><ellipse fill="#fff" rx="1" ry="1" transform="matrix(30.01577 11.07234 -22.89557 62.0671 243.5 27.4)"/><ellipse fill="#fff" rx="1" ry="1" transform="rotate(1.6 -1956 2391.9) scale(26.32501 120.69654)"/><ellipse fill="#9f9e9f" cx="57" cy="22" rx="64" ry="2"/><path fill="#807f80" d="M215.9 15.4l-13.2.4-18.6-1.6L217 12z"/><ellipse fill="#fff" cx="66" cy="18" rx="255" ry="3"/><ellipse fill="#868485" cx="108" cy="48" rx="20" ry="2"/><path fill="#fff" d="M6 41h250v5H6z"/><ellipse fill="#9e9d9e" cx="22" cy="6" rx="27" ry="2"/><ellipse fill="#fff" cx="158" cy="9" rx="215" ry="3"/><path fill="#fff" d="M49 58l41-68v87z"/><path fill="#fff" d="M42.2 44.4l-58.2-4L14.2 77l146.5-22.6z"/><ellipse fill="#fff" cx="151" cy="26" rx="222" ry="3"/><path fill="#828183" d="M177 30h25v3h-25z"/><path fill="#706f6e" d="M177 21h26v3h-26z"/><path fill="#fff" d="M0 33h256v4H0z"/><path fill="#7f7e7e" d="M90 4h24v3H90z"/><ellipse fill="#8c8b8d" cx="22" cy="14" rx="21" ry="2"/><path fill="#89898b" d="M88 29h36v3H88z"/></g></svg>