<svg xmlns="http://www.w3.org/2000/svg" viewBox="0 0 720 450"><filter id="b"><feGaussianBlur stdDeviation="12" /></filter><path fill="#595555" d="M0 0h720v450H0z"/><g filter="url(#b)" transform="translate(1.4 1.4) scale(2.8125)" fill-opacity=".5"><ellipse fill="#fff" rx="1" ry="1" transform="matrix(35.22886 -13.75826 7.74525 19.8322 25.9 95.8)"/><ellipse fill="#b7e3ff" rx="1" ry="1" transform="matrix(-18.3766 -2.16902 6.56752 -55.64213 185 1.6)"/><ellipse fill="#e7b684" rx="1" ry="1" transform="rotate(-116.2 134 .4) scale(55.67832 20.64405)"/><ellipse fill="#000f15" cx="15" cy="36" rx="38" ry="38"/><ellipse fill="#1b0b20" rx="1" ry="1" transform="matrix(26.26018 6.19772 -18.46282 78.22824 131.7 133.6)"/><ellipse fill="#030103" rx="1" ry="1" transform="rotate(-96.2 154.9 -59.5) scale(47.3002 15.94651)"/><ellipse fill="#ffd5c6" rx="1" ry="1" transform="matrix(9.38138 -64.77338 10.56781 1.53058 255 147)"/><ellipse fill="#120b0f" rx="1" ry="1" transform="matrix(21.0436 13.77055 -9.21558 14.08289 59.6 148)"/><ellipse fill="#96e7ff" rx="1" ry="1" transform="matrix(-1.28955 -9.47311 47.8325 -6.51131 10.1 89.1)"/><ellipse fill="#383f27" rx="1" ry="1" transform="rotate(-47.7 61.6 -90.5) scale(67.12434 37.23526)"/><ellipse fill="#d19050" rx="1" ry="1" transform="rotate(68.9 -75 67) scale(10.90739 52.24052)"/><ellipse fill="#fff" rx="1" ry="1" transform="matrix(22.26311 -3.94493 .50645 2.85813 111.8 57)"/><ellipse fill="#b79977" cx="189" cy="117" rx="28" ry="28"/><path fill="#ffc69c" d="M266 175h-31.7l36.7-17.5-71-13z"/><ellipse fill="#1d1e25" rx="1" ry="1" transform="matrix(-43.70197 14.4723 -4.95591 -14.96535 228.4 68.4)"/><ellipse fill="#3f5b9c" rx="1" ry="1" transform="matrix(19.1061 10.77652 -19.79629 35.0976 218.9 8.7)"/><path fill="#122132" d="M197 149l-45 26-82-49z"/><path fill="#5e5044" d="M170 112l39 44-7-43z"/><path fill="#331d11" d="M222.8 121l28.1 13.1-9.7 20.9-28.1-13.1z"/><path fill="#22334e" d="M64 63h65v34H64z"/><path fill="#b9e2ff" d="M174 33h24v16h-24z"/><ellipse fill="#d7c6af" rx="1" ry="1" transform="matrix(1.23732 -10.53276 4.55901 .53556 84.8 111)"/></g></svg>