<svg xmlns="http://www.w3.org/2000/svg" viewBox="0 0 720 141"><filter id="b"><feGaussianBlur stdDeviation="12" /></filter><path fill="#e1e7eb" d="M0 0h720v140H0z"/><g filter="url(#b)" transform="translate(1.4 1.4) scale(2.8125)" fill-opacity=".5"><ellipse fill="#f8faf9" cx="64" cy="25" rx="255" ry="11"/><path fill="#cdd7dd" d="M99.6 67.2l5.9-67.7 15 1.3-6 67.7z"/><path fill="#ff972c" d="M142 22h4v8h-4z"/><ellipse fill="#cdd6dd" cx="176" cy="7" rx="8" ry="99"/><path fill="#96b1c4" d="M190 21h10v9h-10z"/><ellipse fill="#cfd8df" cy="13" rx="16" ry="130"/><path fill="#81a0b9" d="M94 28l6-4-6-5z"/><path fill="#93afc4" d="M128 20l-8 6 10 2z"/><path fill="#d0d9e0" d="M239.3 68l5.5-77.8L270.7-8l-5.5 77.8z"/><ellipse fill="#d6dde3" cx="82" cy="3" rx="255" ry="11"/><path fill="#d5dde3" d="M13 36h228v14H13z"/><path fill="#fff" d="M120 29h117v7H120z"/><path fill="#678ca9" d="M81 28.4l-5-.9 1-5.9 5 .9z"/><path fill="#fff" d="M184.6 15l2.7 6 55.6 3.5-2.6-9.3z"/><ellipse fill="#c2cbd2" cx="176" cy="30" rx="7" ry="6"/><path fill="#fff" d="M18 15h83v7H18z"/><ellipse fill="#7294b0" cx="232" cy="25" rx="5" ry="2"/><path fill="#4b769b" d="M19.2 27.6l-.2-1 9.8-2.2.2 1z"/><ellipse fill="#fff" cx="59" cy="32" rx="47" ry="4"/><path fill="#fff" d="M127.1 21.8l-.2-6 44-1.6.2 6z"/><path fill="#94afc4" d="M161.3 32.1l2-10.7-1.7-.6-1-.9z"/><path fill="#698dab" d="M59 23h3v4h-3z"/></g></svg>