<svg xmlns="http://www.w3.org/2000/svg" viewBox="0 0 720 450"><filter id="b"><feGaussianBlur stdDeviation="12" /></filter><path fill="#9fb7ca" d="M0 0h720v450H0z"/><g filter="url(#b)" transform="translate(1.4 1.4) scale(2.8125)" fill-opacity=".5"><ellipse fill="#5e2a00" rx="1" ry="1" transform="matrix(2.00269 31.05424 -254.47138 16.41086 141.5 147.6)"/><ellipse fill="#c7fcff" rx="1" ry="1" transform="matrix(-254.65053 -13.34567 2.47475 -47.22107 104.8 62.5)"/><ellipse fill="#59a2fe" rx="1" ry="1" transform="matrix(85.6247 -39.33869 14.3966 31.33567 171.2 17.1)"/><ellipse fill="#edffff" rx="1" ry="1" transform="matrix(-69.38405 23.62026 -8.72365 -25.62555 212.3 67)"/><ellipse fill="#fce8f2" rx="1" ry="1" transform="matrix(39.82785 -20.24004 14.29863 28.13648 59.6 7)"/><path fill="#75acf3" d="M93 96h72v29H93z"/><ellipse fill="#e3ffff" cy="86" rx="235" ry="12"/><ellipse fill="#9ad3ff" cx="73" cy="60" rx="112" ry="19"/><ellipse fill="#9adaff" rx="1" ry="1" transform="matrix(.69127 9.88564 -58.05499 4.0596 33 108.1)"/><path fill="#3675b8" d="M271 76l-38 10 23 5z"/><ellipse fill="#8a7667" cx="24" cy="129" rx="114" ry="7"/><ellipse fill="#6d5f55" cx="241" cy="148" rx="65" ry="39"/><ellipse fill="#6fa5e6" rx="1" ry="1" transform="matrix(-35.1281 17.08074 -12.48545 -25.67748 132.4 22)"/><path fill="#89c5fa" d="M184 12h72v25h-72z"/><ellipse fill="#d4faff" rx="1" ry="1" transform="rotate(-178.9 3.2 42.2) scale(70.08523 19.85546)"/><path fill="#fff" d="M206 91h50v8h-50z"/><path fill="#0f2f6f" d="M240 97l-13 5 14 2z"/><path fill="#e9e7f3" d="M44.8 35.5l54.9 13.6-6.4-17-30.5-28z"/><path fill="#000621" d="M211.9 147.6l1.9-2.4 16.3 13.2-1.9 2.4z"/><path fill="#7f8fb0" d="M12 6.8l-28 44.7V-16L61.8-4.6z"/><ellipse fill="#8fbffb" cx="7" cy="43" rx="43" ry="12"/><ellipse fill="#a7e1ff" cx="120" cy="72" rx="92" ry="10"/></g></svg>