<svg xmlns="http://www.w3.org/2000/svg" viewBox="0 0 1400 788"><filter id="b"><feGaussianBlur stdDeviation="12" /></filter><path fill="#3c3c29" d="M0 0h1400v787H0z"/><g filter="url(#b)" transform="translate(2.7 2.7) scale(5.46875)" fill-opacity=".5"><ellipse fill="#ffff62" cx="127" cy="39" rx="56" ry="18"/><path fill="#ffec44" d="M75 24h104v17H75z"/><ellipse fill="#161c1d" rx="1" ry="1" transform="matrix(-211.74786 1.4783 -.28885 -41.37434 135.6 110.1)"/><path fill="#b8aa78" d="M77 19h51v47H77z"/><path fill="#808e5c" d="M120.4 108.3l42.4 5.4 16.4 1.8-57.7 5.4z"/><path fill="#b48800" d="M158 24h21v33h-21z"/><ellipse fill="#272721" cx="209" cy="41" rx="31" ry="142"/><path fill="#716640" d="M144 69l39-21-102 4z"/><path fill="#316bb9" d="M108 110.8v9l-30-.6v-9z"/><path fill="#242824" d="M49 12h28v60H49z"/><path fill="#000004" d="M66 21h106v2H66z"/><path fill="#e9bf00" d="M130.9 52.9l1.3-18.3 7.5-10 35.2-2z"/><path fill="#f7e788" d="M83 24h45v13H83z"/><path fill="#8a8480" d="M34 3h38v5H34z"/><path fill="#cac7b7" d="M108 63h52v2h-52z"/><path fill="#4e5244" d="M35 110L44 9 14 37z"/><path fill="#151c17" d="M75 69h98v41H75z"/><path fill="#aba7c6" d="M160 33.7l-6.9 18-17-4.5 10.4-4.4z"/><path fill="#2d2d22" d="M93 55L-16 65l118 38z"/><path fill="#5f4519" d="M151 61l10-34 14 37z"/><path fill="#656256" d="M17 128h28v9H17z"/><path fill="#262925" d="M187-16L70 13l185 14z"/></g></svg>