<svg xmlns="http://www.w3.org/2000/svg" viewBox="0 0 1400 900"><filter id="b"><feGaussianBlur stdDeviation="12" /></filter><path fill="#504045" d="M0 0h1400v896H0z"/><g filter="url(#b)" transform="translate(2.7 2.7) scale(5.46875)" fill-opacity=".5"><ellipse fill="#ffacdd" cx="100" cy="34" rx="122" ry="21"/><ellipse fill="#101f10" rx="1" ry="1" transform="matrix(-253.8683 23.99762 -5.20796 -55.0944 149.9 120.3)"/><ellipse fill="#d78489" rx="1" ry="1" transform="matrix(10.45853 -35.9985 49.15505 14.28086 77.6 21)"/><path fill="#c3f27b" d="M147.2 71.4l34 1.2-.4 12-34-1.2z"/><ellipse fill="#1d151d" cx="255" cy="106" rx="33" ry="183"/><path fill="#5b5855" d="M41 37l74 78-81 5z"/><ellipse fill="#664865" cx="141" cy="7" rx="95" ry="15"/><ellipse fill="#d3ddd6" cx="73" cy="70" rx="34" ry="3"/><path fill="#81629b" d="M229.4 42.4l-71.1 16.4-7.7-33.2 71.1-16.4z"/><ellipse fill="#d88a9f" rx="1" ry="1" transform="rotate(100.4 23.8 50.7) scale(14.58065 79.97003)"/><ellipse fill="#0f180f" cx="11" cy="77" rx="27" ry="14"/><ellipse fill="#76466d" rx="1" ry="1" transform="rotate(-170.8 2.3 23.7) scale(71.94281 7.47336)"/><ellipse fill="#825055" cx="39" cy="4" rx="106" ry="15"/><ellipse fill="#9b9e98" cx="93" cy="82" rx="38" ry="2"/><ellipse fill="#8c8e89" cx="185" cy="93" rx="47" ry="2"/><ellipse fill="#3f355c" cx="197" cy="54" rx="32" ry="13"/><path fill="#13130f" d="M66 89h39v15H66z"/><ellipse fill="#7b817c" cx="107" cy="115" rx="69" ry="2"/><path fill="#e78e9b" d="M214 38l1-16-46 21z"/><path fill="#979993" d="M149 157h59v2h-59z"/><path fill="#c0c4bf" d="M49 105h59v2H49z"/><ellipse fill="#1e201a" cx="60" cy="77" rx="85" ry="5"/></g></svg>