<svg xmlns="http://www.w3.org/2000/svg" viewBox="0 0 2880 2900"><filter id="b"><feGaussianBlur stdDeviation="12" /></filter><path fill="#f3f2f0" d="M0 0h2888v2900H0z"/><g filter="url(#b)" transform="translate(5.7 5.7) scale(11.32813)" fill-opacity=".5"><ellipse fill="#c60000" cx="230" cy="254" rx="39" ry="9"/><path fill="#b19e73" d="M212.4 163.7l-.8 42-78-1.4.8-42z"/><ellipse fill="#d90000" cx="239" cy="252" rx="44" ry="6"/><ellipse fill="#fff" cx="201" cy="226" rx="148" ry="21"/><path fill="#111b1d" d="M46 15.7l46 1.6v1l-46-1.6z"/><path fill="#fbfeff" d="M208 238l62-34-58-220z"/><ellipse fill="#589b5b" cx="43" cy="211" rx="50" ry="1"/><ellipse fill="#f9fdfe" rx="1" ry="1" transform="matrix(99.36767 13.7884 -6.08954 43.88492 105.5 72.9)"/><ellipse fill="#bfc1bd" cx="219" cy="136" rx="7" ry="16"/><ellipse fill="#fff" rx="1" ry="1" transform="matrix(-21.17362 -3.45808 12.95863 -79.3449 108.6 191.8)"/><path fill="#7cb17b" d="M12 227h71v2H12z"/><path fill="#5b9e5b" d="M0 194h88v1H0z"/><ellipse fill="#db0401" cx="238" cy="255" rx="48" ry="9"/><ellipse fill="#fff" rx="1" ry="1" transform="matrix(77.39865 -23.5601 8.17255 26.84814 152.9 239.5)"/><path fill="#ffd4d0" d="M220 250l-7 5-8-4z"/><path fill="#a4b59c" d="M132 165h10v39h-10z"/><ellipse fill="#fff" cx="50" cy="152" rx="177" ry="13"/><path fill="#b6bbb8" d="M87 126h13v23H87z"/><path fill="#d0d3d2" d="M36.8 25l100-12.2 69 4.3-137 11z"/><path fill="#359f37" d="M66.5 239.8v-1l33-.6v1z"/><ellipse fill="#fff" cx="171" cy="4" rx="96" ry="11"/><path fill="#ced2d0" d="M172 110h14v36h-14z"/></g></svg>