<svg xmlns="http://www.w3.org/2000/svg" viewBox="0 0 1406 210"><filter id="b"><feGaussianBlur stdDeviation="12" /></filter><path fill="#f3f4f3" d="M0 0h1406v208H0z"/><g filter="url(#b)" transform="translate(2.7 2.7) scale(5.49219)" fill-opacity=".5"><ellipse fill="#7b9b7a" cx="66" cy="30" rx="97" ry="2"/><path fill="#7b857a" d="M21 3h6v30h-6z"/><ellipse fill="#a2a4a4" cx="62" cy="6" rx="44" ry="2"/><ellipse fill="#949495" cx="66" cy="18" rx="33" ry="2"/><ellipse fill="#fff" rx="1" ry="1" transform="matrix(26.4619 -51.26898 84.91013 43.82539 190.1 16.1)"/><path fill="#fefbfe" d="M49.2 44.8L-16-16 6.5 53l16.8-28z"/><ellipse fill="#fff" rx="1" ry="1" transform="matrix(.08491 -2.74249 88.90928 2.75285 56.8 13.6)"/><ellipse fill="#61bc62" cx="54" cy="29" rx="22" ry="2"/><path fill="#fff" d="M25.9 11.7l3.6 27.6 6.1-1.8L36-16zM37 20h88v9H37z"/><path fill="#311419" d="M21.2 26.4l6 1.2-.4 2-6-1.2z"/><path fill="#aa9eac" d="M86 29h66v2H86z"/><path fill="#38202a" d="M27 29.1l-4.9 3.4L21 31l4.9-3.4z"/><path fill="#fff" d="M-12.3 44.5l50.5-26.2-19.8 5.5 7.8 19.6z"/><path fill="#a8a9a9" d="M2 5h9v4H2z"/><ellipse fill="#fff" cx="103" cy="37" rx="46" ry="7"/><ellipse fill="#39a239" cx="68" cy="30" rx="11" ry="1"/><path fill="#bcbdbd" d="M2 21l2-6h12z"/><ellipse fill="#fffeff" rx="1" ry="1" transform="rotate(131.5 87.9 51) scale(30.65859 84.57856)"/><path fill="#fdfbfc" d="M42.1 36.7L53 17 38.2 53 24.7 21.9z"/><path fill="#b3b3b4" d="M47 6h52v3H47z"/><path fill="#fff" d="M11 22l15-11-11-7z"/></g></svg>