<svg xmlns="http://www.w3.org/2000/svg" viewBox="0 0 720 450"><filter id="b"><feGaussianBlur stdDeviation="12" /></filter><path fill="#aab2ba" d="M0 0h720v450H0z"/><g filter="url(#b)" transform="translate(1.4 1.4) scale(2.8125)" fill-opacity=".5"><ellipse fill="#c4711a" rx="1" ry="1" transform="matrix(-8.93084 -33.72475 217.15381 -57.50571 209 141.7)"/><ellipse fill="#b5efff" rx="1" ry="1" transform="rotate(3.3 -758.5 2237) scale(153.90194 39.79162)"/><ellipse fill="#99592e" rx="1" ry="1" transform="matrix(-.43045 -15.4104 146.40192 -4.08938 6.5 100.3)"/><ellipse fill="#4f90f3" cx="50" cy="11" rx="58" ry="22"/><ellipse fill="#fff4fe" rx="1" ry="1" transform="rotate(-33 97 -250) scale(59.79267 26.41294)"/><ellipse fill="#3877c3" rx="1" ry="1" transform="matrix(.20744 16.978 -23.38374 .2857 240.2 11)"/><ellipse fill="#001030" cx="1" cy="95" rx="16" ry="9"/><ellipse fill="#acd8ff" cx="92" cy="56" rx="255" ry="21"/><ellipse fill="#fef0fa" rx="1" ry="1" transform="matrix(-3.48123 10.46497 -37.55543 -12.49303 40.8 45.8)"/><ellipse fill="#9a8259" rx="1" ry="1" transform="rotate(13.6 -313.2 1087.7) scale(28.87447 24.36375)"/><ellipse fill="#96917a" rx="1" ry="1" transform="rotate(73.3 -99.2 89.9) scale(15.03661 92.36652)"/><path fill="#98656a" d="M147.3 102.6l-3-16.8 36.4-6.4 3 16.8z"/><path fill="#5382ba" d="M45 65h32v20H45z"/><path fill="#a66143" d="M-16 124.5l20.2-13 59.7.1-36.4 6.6z"/><path fill="#86b8fc" d="M119 16L80 45 12 26z"/><path fill="#8a7f75" d="M-6.7 87.1l90 1-34.5-7.2L-16 68z"/><path fill="#d1f9ff" d="M79.1 66.7l90 1.6-.2 15-90-1.6z"/><ellipse fill="#8ec6ff" cx="194" cy="51" rx="69" ry="13"/><path fill="#a6c7f6" d="M167.5 119.3L239.2 22 192.2.8l8.7 104.3z"/><ellipse fill="#524a3b" cx="162" cy="115" rx="3" ry="16"/><ellipse fill="#99bae9" cx="120" cy="112" rx="40" ry="7"/><ellipse fill="#c4efff" cx="220" cy="71" rx="28" ry="14"/></g></svg>