<svg xmlns="http://www.w3.org/2000/svg" viewBox="0 0 2848 1550"><filter id="b"><feGaussianBlur stdDeviation="12" /></filter><path fill="#d0cfcf" d="M0 0h2848v1546H0z"/><g filter="url(#b)" transform="translate(5.6 5.6) scale(11.125)" fill-opacity=".5"><ellipse fill="#060906" cx="131" cy="53" rx="197" ry="10"/><path fill="#030701" d="M183 110h55v29h-55z"/><ellipse cx="124" cy="16" rx="238" ry="5"/><ellipse fill="#fff" cx="69" cy="95" rx="155" ry="34"/><path fill="#fff" d="M250 154l20-167-41 96z"/><path fill="#fff" d="M-16 17.3L2.4 154 14.5 39.6l251.2 5.2z"/><ellipse fill="#fff" cx="127" cy="117" rx="56" ry="56"/><path fill="#fff" d="M79 47h29v12H79zM69 21h187v23H69z"/><ellipse fill="#fff" cx="68" cy="125" rx="116" ry="64"/><path fill="#0f110d" d="M111 45h100v16H111z"/><ellipse fill="#0a080a" cx="143" cy="17" rx="130" ry="3"/><ellipse fill="#fff" cx="213" cy="75" rx="203" ry="14"/><path fill="#f7f5f8" d="M226 146.5l-27.9 3-2-20 27.8-3z"/><ellipse fill="#fff" cx="110" cy="4" rx="255" ry="7"/><path d="M184 112h54v8h-54z"/><path fill="#f9fafb" d="M37 62h219v49H37z"/><ellipse fill="#37191b" cx="117" cy="14" rx="186" ry="3"/><path fill="#ff1616" d="M-.6 12l25-1 .2 9-25 1z"/><path fill="#fff" d="M243 22h13v40h-13z"/><path fill="#121211" d="M227 44h16v17h-16z"/><path fill="#fff" d="M-15 76l25-62 3 48z"/></g></svg>