<svg xmlns="http://www.w3.org/2000/svg" viewBox="0 0 740 463"><filter id="b"><feGaussianBlur stdDeviation="12" /></filter><path fill="#58576c" d="M0 0h740v462H0z"/><g filter="url(#b)" transform="translate(1.4 1.4) scale(2.89063)" fill-opacity=".5"><ellipse fill="#fff" cx="158" cy="7" rx="180" ry="34"/><ellipse fill="#180818" cx="99" cy="127" rx="223" ry="89"/><ellipse fill="#d2feff" rx="1" ry="1" transform="matrix(-150.54801 -.26276 .04228 -24.22374 156.2 17.3)"/><ellipse fill="#f2ffff" cx="80" cy="23" rx="83" ry="10"/><ellipse fill="#b6d1ff" cx="180" cy="8" rx="133" ry="31"/><path fill="#7384b7" d="M254.3 35.7L222.5 21l15.2-32.6L269.5 3z"/><path fill="#363666" d="M23 76l-39-53 164 25z"/><path fill="#f1ffff" d="M19 28L163 6l-50 33z"/><ellipse fill="#342c6e" rx="1" ry="1" transform="matrix(-1.02483 7.29204 -31.75207 -4.46246 146.6 45.1)"/><path fill="#b96852" d="M255.4 41l15.4 34.1-32.1-17.9-16.8-9.6z"/><ellipse fill="#3e344c" rx="1" ry="1" transform="matrix(4.89782 -23.23947 38.37342 8.08737 204 64.9)"/><ellipse fill="#9ebeff" cx="209" rx="38" ry="22"/><ellipse fill="#2f252d" rx="1" ry="1" transform="matrix(181.47786 1.9005 -.45139 43.10286 73 161.5)"/><ellipse fill="#c9edff" rx="1" ry="1" transform="matrix(57.5226 .12636 -.02406 10.9515 185 29)"/><ellipse fill="#4a3f4c" rx="1" ry="1" transform="rotate(-151.2 144.2 32.6) scale(98.99583 21.54795)"/><ellipse fill="#c5d7ff" cx="112" cy="11" rx="82" ry="10"/><ellipse fill="#391a3b" rx="1" ry="1" transform="matrix(-25.7074 2.69048 -.4347 -4.1535 212.3 44)"/><path fill="#7a747e" d="M251 0h5v33h-5z"/><ellipse fill="#313358" cy="44" rx="68" ry="15"/><path fill="#3d4073" d="M40 37h48v15H40z"/><path fill="#591e05" d="M240 24h13v2h-13z"/><path fill="#17182d" d="M83.4 77.5l17.4-.3 56.2-4.7-36.3-17z"/></g></svg>