<svg xmlns="http://www.w3.org/2000/svg" viewBox="0 0 2866 1018"><filter id="b"><feGaussianBlur stdDeviation="12" /></filter><path fill="#f5f5f6" d="M0 0h2866v1007H0z"/><g filter="url(#b)" transform="translate(5.6 5.6) scale(11.19531)" fill-opacity=".5"><path fill="#c1c1c1" d="M232.5 8.3v1l-89-1.6v-1z"/><path fill="#807e83" d="M3 2h13v2H3z"/><path fill="#605f60" d="M34 87h25v1H34z"/><ellipse fill="#fff" cx="153" cy="2" rx="134" ry="6"/><ellipse fill="#d5d5d4" rx="1" ry="1" transform="rotate(-1.2 1908.4 -9532.7) scale(58.87085 1)"/><ellipse fill="#fff" cx="194" cy="89" rx="115" ry="16"/><ellipse fill="#bcbcbc" cx="136" cy="38" rx="134" ry="1"/><ellipse fill="#bcbcbc" cx="86" cy="8" rx="167" ry="1"/><path fill="#fcfdfc" d="M12 4h45v72H12z"/><path fill="#d7e4f3" d="M2 13h9v71H2z"/><ellipse fill="#dbdbda" cx="170" cy="67" rx="83" ry="1"/><ellipse fill="#c2c1c0" cx="56" cy="82" rx="68" ry="1"/><path fill="#fff" d="M20.7 105l-23.4-4.6 19-29.3 20.2 7.3z"/><path fill="#fdfdfc" d="M61 39l72 11-73 39z"/><ellipse fill="#d9d9d9" cx="255" cy="47" rx="155" ry="1"/><ellipse fill="#e1e1e2" cx="38" cy="40" rx="2" ry="39"/><ellipse fill="#e3e3e3" cx="191" cy="17" rx="90" ry="2"/><ellipse fill="#fff" cx="141" cy="35" rx="168" ry="2"/><ellipse fill="#e2e2e2" cx="48" cy="45" rx="2" ry="39"/><ellipse fill="#dfdfdf" cx="159" cy="57" rx="103" ry="1"/><path fill="#fff" d="M201.2 7.6l3.5 90 .2-113L4.4 4.7z"/><ellipse fill="#fff" cx="52" cy="15" rx="255" ry="2"/></g></svg>