<svg xmlns="http://www.w3.org/2000/svg" viewBox="0 0 1400 900"><filter id="b"><feGaussianBlur stdDeviation="12" /></filter><path fill="#292824" d="M0 0h1400v896H0z"/><g filter="url(#b)" transform="translate(2.7 2.7) scale(5.46875)" fill-opacity=".5"><path fill="#484841" d="M98 180V38h42v142z"/><ellipse fill="#fff" cx="31" cy="43" rx="4" ry="4"/><path fill="#151410" d="M269 34L162-16-16 30z"/><ellipse fill="#a2a49f" cx="124" cy="121" rx="32" ry="2"/><path fill="#a76957" d="M18 5h29v9H18z"/><ellipse fill="#171410" cy="115" rx="28" ry="139"/><path fill="#13120e" d="M271-3.4L237-16l1 175.6 17.2 19.4z"/><path fill="#ced0cc" d="M99 154h40v2H99z"/><ellipse fill="#373631" cx="212" cy="102" rx="20" ry="76"/><ellipse fill="#959692" rx="1" ry="1" transform="matrix(.03399 -1.4976 23.79551 .54 116.3 56.4)"/><ellipse fill="#2c2b27" rx="1" ry="1" transform="rotate(-134.3 91.8 10.6) scale(21.18561 50.06296)"/><path fill="#8c7066" d="M77.3 14.6l-6 .7-2.6-21.9 6-.7z"/><path fill="#b9bbb7" d="M96 88h25v3H96z"/><path fill="#7f807b" d="M90 107l26-2-14-4z"/><path fill="#ced1cd" d="M112 39.3v2l-16-.6v-2z"/><path fill="#a8aaa6" d="M96 72h14v3H96z"/><path fill="#adafaa" d="M236 5l-2 7-2-5z"/><path fill="#aeafac" d="M216 6h7v6h-7z"/><path fill="#afb1ad" d="M96 137h15v3H96z"/><ellipse fill="#b43d21" cx="19" cy="45" rx="2" ry="9"/><ellipse fill="#9b9d99" rx="1" ry="1" transform="rotate(-89.1 42.6 8.7) scale(1 6.99174)"/><path fill="#8a8c86" d="M193 141h31v2h-31z"/></g></svg>