<svg xmlns="http://www.w3.org/2000/svg" viewBox="0 0 2880 412"><filter id="b"><feGaussianBlur stdDeviation="12" /></filter><path fill="#f6f7f5" d="M0 0h2880v405H0z"/><g filter="url(#b)" transform="translate(5.6 5.6) scale(11.25)" fill-opacity=".5"><ellipse fill="#5a5754" cx="136" cy="3" rx="6" ry="1"/><path fill="#9aa79e" d="M0 2h18v2H0z"/><ellipse fill="#bec1bf" cx="207" cy="8" rx="204" ry="1"/><path fill="#d6e3f1" d="M135-8l-4 39 13 3z"/><path fill="#fff" d="M271 4.1L149.9-16l-10 38.1 52-14.3z"/><ellipse fill="#100300" cx="131" cy="2" rx="1" ry="2"/><path fill="#fff" d="M108 3L15-16l3 27z"/><path fill="#d3e4f6" d="M3 12h11v23H3z"/><path fill="#f9eb9b" d="M25 21h16v4H25z"/><path fill="#faefa8" d="M67 21h17v4H67z"/><path fill="#fff" d="M27 34h229v2H27z"/><path fill="#f6f1c4" d="M154 21h15v7h-15z"/><ellipse fill="#fff" cx="100" cy="30" rx="182" ry="2"/><path fill="#fff" d="M17 0h113v6H17z"/><ellipse fill="#989792" cx="136" cy="2" rx="8" ry="1"/><path fill="#f5f0cb" d="M111 11h8v15h-8z"/><path fill="#fff" d="M13 4h13v32H13z"/><path fill="#8ab2e2" d="M131 23h16v1h-16z"/><ellipse fill="#fff" cx="127" cy="7" rx="3" ry="45"/><path fill="#c1c4c2" d="M210 9.5v1l-22-2v-1z"/><path fill="#7e9b83" d="M4.3-2.5l1 .2-1.6 6.8-1-.2z"/><path fill="#a6c5e9" d="M131 32h13v2h-13z"/></g></svg>