<svg xmlns="http://www.w3.org/2000/svg" viewBox="0 0 720 450"><filter id="b"><feGaussianBlur stdDeviation="12" /></filter><path fill="#9fb7ca" d="M0 0h720v450H0z"/><g filter="url(#b)" transform="translate(1.4 1.4) scale(2.8125)" fill-opacity=".5"><ellipse fill="#5e2b00" rx="1" ry="1" transform="matrix(-.96732 -36.5486 247.23102 -6.5434 193.3 150)"/><ellipse fill="#c8fdff" rx="1" ry="1" transform="matrix(-254.6193 -13.9287 2.58681 -47.2874 94.6 62.6)"/><ellipse fill="#56a1ff" rx="1" ry="1" transform="matrix(67.61709 -28.32921 13.18837 31.47842 157 23.3)"/><ellipse fill="azure" rx="1" ry="1" transform="matrix(-8.68676 -25.96198 63.25087 -21.16345 213.3 67.6)"/><ellipse fill="#74abf6" cx="121" cy="112" rx="48" ry="14"/><ellipse fill="#fee9f3" rx="1" ry="1" transform="matrix(5.5678 27.61325 -38.44519 7.7519 55.8 13)"/><ellipse fill="#e2ffff" rx="1" ry="1" transform="matrix(211.74025 -1.0675 .05453 10.81562 28.6 86.5)"/><ellipse fill="#ace0ff" rx="1" ry="1" transform="matrix(72.7065 -11.64473 6.1835 38.60813 37.4 79.6)"/><ellipse fill="#76b0ec" cx="219" cy="17" rx="125" ry="20"/><ellipse fill="#877158" cx="24" cy="140" rx="172" ry="17"/><ellipse fill="#6d5e55" rx="1" ry="1" transform="rotate(95.6 49.5 189.6) scale(48.64897 65.61897)"/><ellipse fill="#95cfff" rx="1" ry="1" transform="rotate(98.9 31.5 81.8) scale(16.03909 68.52781)"/><ellipse fill="#ebffff" cx="6" cy="87" rx="99" ry="11"/><path fill="#3173b7" d="M233 88.7l21.5 3L271 69.3V73z"/><path fill="#0e296b" d="M228.5 104.9v-4l15 .2v4z"/><path fill="#7fbcfe" d="M-15 29L6 59l49-13z"/><path fill="#fff" d="M208 91h48v8h-48z"/><ellipse fill="#9ad0fd" cx="218" cy="27" rx="43" ry="12"/><path fill="#00152a" d="M239.2 170L211 146.3l1.9-2.3 28.3 23.7z"/><path fill="#e6e3ef" d="M.5 27l101.2 20.6-8.1-12.9L74 5.1z"/><ellipse fill="#92c3ee" cx="101" cy="106" rx="92" ry="13"/><ellipse fill="#5c7bab" rx="8" ry="20"/></g></svg>