<svg xmlns="http://www.w3.org/2000/svg" viewBox="0 0 720 450"><filter id="b"><feGaussianBlur stdDeviation="12" /></filter><path fill="#646649" d="M0 0h720v450H0z"/><g filter="url(#b)" transform="translate(1.4 1.4) scale(2.8125)" fill-opacity=".5"><ellipse fill="#d7c8d1" cx="29" cy="28" rx="44" ry="90"/><ellipse fill="#060d08" rx="1" ry="1" transform="rotate(-158.3 76.9 54.6) scale(42.59411 79.9149)"/><ellipse fill="#374d00" cx="234" cy="23" rx="52" ry="52"/><ellipse fill="#a499ab" rx="1" ry="1" transform="matrix(-25.59606 -43.67963 28.78163 -16.8659 143.4 3)"/><ellipse fill="#9bb03d" rx="1" ry="1" transform="matrix(-50.78538 5.5983 -3.83505 -34.78993 27.5 130.3)"/><ellipse fill="#949e71" rx="1" ry="1" transform="matrix(10.6893 9.65853 -19.81174 21.92608 107 102.9)"/><ellipse fill="#00103f" rx="1" ry="1" transform="matrix(18.20491 -2.30699 3.14547 24.82155 85.6 79.7)"/><ellipse fill="#e1d5d1" rx="1" ry="1" transform="matrix(-32.52626 -10.1308 7.06779 -22.69206 36.3 11)"/><path fill="#45530e" d="M320.1 116.9L134.4 242l-42.5-63L277.6 54z"/><ellipse fill="#cd8260" cx="192" cy="85" rx="20" ry="27"/><ellipse fill="#111e46" rx="1" ry="1" transform="rotate(-143.8 50.8 -4) scale(31.65789 13.7664)"/><path fill="#001007" d="M74.5 128l99-13.8 4 27.7-99 14z"/><path fill="#d0bfd6" d="M58.8 96.2l9 18-16.5 5.5-13.7-10.8z"/><path fill="#1a101a" d="M154 48h20v100h-20z"/><path fill="#767267" d="M58.1 80.6l-41 38.2L-12 87.4l41-38.2z"/><path fill="#3f434b" d="M47 34h32v15H47z"/><path fill="#000110" d="M206 114l-15-19 1-18z"/><path fill="#515367" d="M69.5 25.8l71.7-2.5-5.9 37.9-17.8 34.3z"/><ellipse fill="#bfb5ac" rx="1" ry="1" transform="matrix(-5.99677 -40.37058 10.48752 -1.55785 167.9 0)"/><path fill="#cac7ae" d="M100 98h25v9h-25z"/><ellipse fill="#65752e" rx="1" ry="1" transform="matrix(-4.16708 -9.40356 37.5104 -16.62232 123 159)"/><path fill="#291e25" d="M127.8 108l-4-44.6 27.7 1.4 49.2 71.4z"/></g></svg>