<svg xmlns="http://www.w3.org/2000/svg" viewBox="0 0 1400 788"><filter id="b"><feGaussianBlur stdDeviation="12" /></filter><path fill="#2b2c23" d="M0 0h1400v787H0z"/><g filter="url(#b)" transform="translate(2.7 2.7) scale(5.46875)" fill-opacity=".5"><path fill="#5c6641" d="M28.3 44.4L12.5 25 53.7-8.4 69.5 11z"/><ellipse fill="#4e4c44" cx="83" cy="70" rx="11" ry="51"/><path fill="#b2aca3" d="M72 81h68v2H72z"/><ellipse fill="#949083" cx="93" cy="22" rx="25" ry="2"/><ellipse fill="#949183" cx="98" cy="112" rx="30" ry="2"/><path fill="#afaa9c" d="M124.5 71l-57 3v-1l57-3z"/><path fill="#505045" d="M28 15h12v89H28z"/><ellipse fill="#21221b" cx="174" cy="26" rx="44" ry="255"/><path fill="#121913" d="M12 105h62v23H12z"/><path fill="#67645c" d="M19.2 128.4l24 1.2-.4 8-24-1.2z"/><path fill="#bcb0b0" d="M35.1 3.2l12 .6-.2 5-12-.6z"/><path fill="#9c9791" d="M102 32v1l-34-1v-1z"/><path fill="#24271c" d="M50 8h24v125H50z"/><path fill="#d6d3c8" d="M104 133.5l6.8 2-.9 3-6.7-2z"/><ellipse fill="#c0bdb4" cx="69" cy="136" rx="3" ry="3"/><ellipse fill="#464935" cx="177" cy="11" rx="125" ry="2"/><path fill="#687a3b" d="M19 16h40v9H19z"/><path fill="#23251e" d="M70 113h36v31H70z"/><ellipse fill="#60625d" cx="74" cy="5" rx="33" ry="2"/><path fill="#a8a497" d="M74 61h28v2H74z"/><ellipse fill="#0e1513" cx="128" rx="183" ry="3"/><ellipse fill="#151b15" cx="239" cy="104" rx="5" ry="116"/></g></svg>