<svg xmlns="http://www.w3.org/2000/svg" viewBox="0 0 720 450"><filter id="b"><feGaussianBlur stdDeviation="12" /></filter><path fill="#434e57" d="M0 0h720v450H0z"/><g filter="url(#b)" transform="translate(1.4 1.4) scale(2.8125)" fill-opacity=".5"><ellipse fill="#e0f7ff" cx="59" cy="13" rx="79" ry="34"/><ellipse fill="#eef8ff" rx="1" ry="1" transform="rotate(139.4 122.3 61.3) scale(26.73656 45.79491)"/><ellipse fill="#09130b" rx="1" ry="1" transform="matrix(-4.99534 -58.50726 172.78708 -14.75252 151.6 130.5)"/><ellipse fill="#b0cfff" rx="1" ry="1" transform="matrix(-12.17995 15.53366 -31.46832 -24.67431 94.8 40.7)"/><path fill="#3e2035" d="M3.5 85.4l21-64.4-3.3-37L55.5 3z"/><ellipse fill="#151e27" rx="1" ry="1" transform="matrix(-23.7968 -5.88025 26.73476 -108.19308 157.8 54.6)"/><path fill="#182859" d="M98.5 76.9l5.3-49 2-1.6 32-8z"/><ellipse fill="#c5e7ff" rx="1" ry="1" transform="matrix(35.186 -17.476 7.97978 16.06642 85.7 18.6)"/><ellipse fill="#feffff" rx="1" ry="1" transform="rotate(-66.9 122.6 -172.9) scale(35.34172 7.53044)"/><path fill="#4c628b" d="M227.1 25.3l-7.6 30 42 46.4-16.3-77z"/><ellipse fill="#a9ceff" rx="1" ry="1" transform="matrix(11.97301 -32.93603 14.46794 5.25943 3.7 24.4)"/><ellipse fill="#3f95fa" rx="1" ry="1" transform="matrix(6.00115 8.54822 -18.81773 13.2107 83.8 8)"/><path fill="#c1b1ae" d="M42 42L23 64l15 12z"/><path fill="#e2f9ff" d="M63.3 28.3l7.5-8 35.9 33.4-7.5 8z"/><ellipse fill="#9d8071" rx="1" ry="1" transform="matrix(-17.12813 -15.44512 5.86148 -6.5002 82.2 60.1)"/><ellipse fill="#192350" cx="125" cy="26" rx="5" ry="22"/><path fill="#69b4ff" d="M134 36l8-52h-22z"/><path fill="#2a3536" d="M232.1 71.7L190.8 138l-73-45.6L159.3 26z"/><ellipse fill="#213162" rx="1" ry="1" transform="matrix(3.61175 -14.37896 10.4105 2.61494 26 40.9)"/><path fill="#3d4653" d="M128.3 112.7l-37-53.3 17.2 1.3-4.3-50.4z"/><path fill="#b0d0ef" d="M118.4 67.7l6.4 4-12-81.4-.7 48.8z"/><path fill="#fff" d="M217-13l17 40 19-43z"/></g></svg>