<svg xmlns="http://www.w3.org/2000/svg" viewBox="0 0 1400 758"><filter id="b"><feGaussianBlur stdDeviation="12" /></filter><path fill="#856082" d="M0 0h1400v754H0z"/><g filter="url(#b)" transform="translate(2.7 2.7) scale(5.46875)" fill-opacity=".5"><ellipse fill="#ffadb8" cx="103" cy="62" rx="71" ry="49"/><ellipse rx="1" ry="1" transform="matrix(-28.99167 -3.04715 17.7742 -169.1103 248.5 62.4)"/><ellipse fill="#1f2250" rx="1" ry="1" transform="matrix(-237.33898 6.62948 -.66774 -23.90545 57.5 137.2)"/><ellipse fill="#3c62ad" rx="1" ry="1" transform="matrix(35.08784 -47.29717 18.2706 13.55421 189.2 31.8)"/><ellipse fill="#ff9297" rx="1" ry="1" transform="matrix(39.0205 -35.14124 25.37804 28.17953 98.2 48.3)"/><ellipse fill="#fb9db0" rx="1" ry="1" transform="matrix(-3.9978 16.08586 -78.58237 -19.53 46.3 79.6)"/><ellipse fill="#c58dc3" rx="1" ry="1" transform="matrix(-36.42336 15.43777 -4.62693 -10.91663 194.5 70.6)"/><ellipse fill="#334d8a" rx="1" ry="1" transform="rotate(-109.9 25.7 -15.4) scale(24.48219 68.63147)"/><ellipse rx="1" ry="1" transform="matrix(-13.1415 9.95727 -38.62708 -50.97958 255 23)"/><ellipse fill="#2c5289" rx="1" ry="1" transform="matrix(-2.51838 15.54896 -58.69432 -9.5064 171.2 5)"/><path fill="#806eb1" d="M38 67l-54-19L66 9z"/><ellipse fill="#9c74ad" cx="169" cy="73" rx="54" ry="23"/><ellipse fill="#101029" rx="1" ry="1" transform="matrix(-53.1049 69.96313 -22.0442 -16.73246 248 117.7)"/><ellipse fill="#724d7d" cx="115" cy="113" rx="113" ry="9"/><path fill="#c17597" d="M199.5 63.6L238.7 48l3.2 28-10.2-14.7z"/><path fill="#f48a8f" d="M58 26h107v23H58z"/><path fill="#46437a" d="M169 95l53-10-38 68z"/><path fill="#ff9ea3" d="M189 75h23v13h-23z"/><ellipse fill="#c66681" cx="33" cy="136" rx="30" ry="4"/><path fill="#4a63a0" d="M230 26L128-14l83 68z"/><ellipse fill="#313657" rx="1" ry="1" transform="rotate(68.2 -3.8 4.8) scale(13.15824 100.56245)"/><path fill="#ffd8ae" d="M76 89h33v13H76z"/></g></svg>