<svg xmlns="http://www.w3.org/2000/svg" viewBox="0 0 1600 1391"><filter id="b"><feGaussianBlur stdDeviation="12" /></filter><path fill="#3b3a39" d="M0 0h1600v1387H0z"/><g filter="url(#b)" transform="matrix(6.25 0 0 6.25 3.1 3.1)" fill-opacity=".5"><ellipse fill="#7e7f80" rx="1" ry="1" transform="matrix(-23.13468 -58.74112 131.90562 -51.94988 83.4 33)"/><ellipse fill="#000102" rx="1" ry="1" transform="matrix(17.39738 -54.17925 242.78996 77.96177 88 190.3)"/><path fill="#fbe5a0" d="M193.6 77.9l-3.3 37.1 30.4-7.4 6.8-26.8z"/><ellipse fill="#030404" rx="1" ry="1" transform="matrix(-26.7598 .28024 -1.02548 -97.92286 247.2 123.5)"/><path d="M248.2 50.8L166 76l-8.2-26.8L240 24z"/><ellipse fill="#6e6e6f" cx="110" cy="93" rx="56" ry="18"/><ellipse fill="#7b7c7d" cx="252" cy="9" rx="54" ry="20"/><path fill="#ff2208" d="M208.1 60.2L189.9 74l19.8 1 18.8-1.4z"/><path fill="#fff" d="M214 83.5l-16.4 7.3-3.7-8.3 16.5-7.3z"/><ellipse fill="#454442" cx="153" cy="145" rx="75" ry="26"/><path fill="#0e0f10" d="M166 48h24v98h-24z"/><path fill="#dfc08e" d="M223 148l-37 12 6-11z"/><ellipse fill="#101111" cx="41" cy="122" rx="69" ry="14"/><path fill="#5f5f5f" d="M0 0h156v108H0z"/><path d="M219 116l-15-14 5 17z"/><path fill="#8baad1" d="M224 111h2v26h-2z"/><ellipse fill="#ffffd1" rx="1" ry="1" transform="matrix(.41151 3.72859 -13.47413 1.4871 210 83.3)"/><ellipse fill="#161718" rx="1" ry="1" transform="matrix(-71.61464 8.78856 -.57852 -4.71418 125 115.8)"/><path fill="#4f555d" d="M104 120h114v7H104z"/><ellipse fill="#ff8565" cx="205" cy="68" rx="5" ry="5"/><path fill="#191815" d="M227.9 126.2l-24.1 21.3 67.2 12.3-72.7 77.2z"/><path fill="#88774f" d="M192 90h33v20h-33z"/></g></svg>