<svg xmlns="http://www.w3.org/2000/svg" viewBox="0 0 1400 700"><filter id="b"><feGaussianBlur stdDeviation="12" /></filter><path d="M0 0h1400v700H0z"/><g filter="url(#b)" transform="translate(2.7 2.7) scale(5.46875)"><path fill-opacity=".5" d="M169.3 50.7l-1-.4 4.4-9 1 .4zM223 93h12v26h-12zM60 17h13v27H60zM241 6h15v8h-15zM13.9 38l-6.3-6.4L32.1 8l6.3 6.4z"/><ellipse fill-opacity=".5" rx="1" ry="1" transform="matrix(-8.82638 -11.9842 6.45009 -4.7505 234.9 61.2)"/><ellipse fill-opacity=".5" cx="138" cy="3" rx="8" ry="3"/><ellipse fill-opacity=".5" rx="1" ry="1" transform="rotate(-54.4 135.1 7.8) scale(5.9494 25.75105)"/><path fill-opacity=".5" d="M75 115l-8-20 16 18zm130.8-31.4l1.7 2.5-3.3 2.3-1.7-2.5zM39 75h8v14h-8z"/><path stroke="#000" stroke-opacity=".5" fill="none" d="M150.1 39.4q-11 21.8-1 29" stroke-width=".5"/><path fill-opacity=".5" d="M176 127h29v1h-29zM17.4 101.3l-5.9 30.4-5-1 6-30.4z"/><ellipse fill-opacity=".5" cx="115" cy="56" rx="27" ry="19"/><path fill-opacity=".5" d="M202 14l-6 6 1-22zM79 63l40-24 18 31zM56 51l18 4-26 15z"/><ellipse fill-opacity=".5" cx="242" cy="9" rx="26" ry="9"/><path fill-opacity=".5" d="M180.2 42.2l5.5 28.5-5.9 1.1-5.5-28.5z"/><ellipse fill-opacity=".5" cx="196" cy="103" rx="23" ry="23"/><path stroke="#000" stroke-opacity=".5" fill="none" d="M125.5 28.4q8.7 6.2 17.3-3.4" stroke-width=".5"/></g></svg>