<svg xmlns="http://www.w3.org/2000/svg" viewBox="0 0 1400 560"><filter id="b"><feGaussianBlur stdDeviation="12" /></filter><path fill="#202222" d="M0 0h1400v557H0z"/><g filter="url(#b)" transform="translate(2.7 2.7) scale(5.46875)" fill-opacity=".5"><ellipse fill="#343636" rx="1" ry="1" transform="matrix(71.09613 1.05707 -.37799 25.42269 90.4 50.7)"/><ellipse fill="#171919" rx="1" ry="1" transform="matrix(1.53008 254.9954 -39.9085 .23947 232.3 56.4)"/><ellipse fill="#171919" rx="1" ry="1" transform="matrix(.39875 -15.22775 214.8742 5.62668 84.6 100.9)"/><ellipse fill="#171919" rx="1" ry="1" transform="matrix(.5113 11.25963 -246.37414 11.18778 93.2 4)"/><ellipse fill="#343636" cx="82" cy="50" rx="33" ry="15"/><ellipse fill="#222424" cx="185" cy="51" rx="50" ry="29"/><ellipse fill="#242626" rx="1" ry="1" transform="matrix(-77.50499 -27.16313 3.30665 -9.43492 36.3 65.8)"/><path fill="#242626" d="M61 8L-6 50l136-29z"/><ellipse fill="#161818" rx="1" ry="1" transform="matrix(12.82847 20.77106 -22.90053 14.14366 5.3 4.7)"/><ellipse fill="#171918" rx="1" ry="1" transform="rotate(-73 74.6 42.7) scale(26.7705 30.32834)"/><path fill="#262828" d="M140 18l-35 64 94-28z"/><ellipse fill="#1d1f1f" cx="158" cy="11" rx="59" ry="13"/><path fill="#1d1f1f" d="M111 88.6l91.4-26.2 14.6 51-91.4 26.2z"/><path fill="#252727" d="M105 32.6l73.4 16-50-33.2L33.3 27z"/><path fill="#2c2e2e" d="M105 41h39v21h-39z"/><path fill="#262828" d="M54 70h88v10H54z"/><path fill="#252727" d="M13 36h24v28H13z"/><path fill="#333535" d="M66 43h30v15H66z"/><ellipse fill="#2d2f2f" rx="1" ry="1" transform="rotate(-30.1 117.9 -94.9) scale(29.66599 12.54754)"/><path fill="#171919" d="M207 91.6L264.8 74l-3.8 35.4-43.8-21.5zM278.4-1L266 31.7 227.6 17 240-15.7z"/><ellipse fill="#1e2020" cx="79" cy="14" rx="63" ry="7"/></g></svg>