<svg xmlns="http://www.w3.org/2000/svg" viewBox="0 0 1400 700"><filter id="b"><feGaussianBlur stdDeviation="12" /></filter><path d="M0 0h1400v700H0z"/><g filter="url(#b)" transform="translate(2.7 2.7) scale(5.46875)"><ellipse fill-opacity=".5" cx="198" cy="103" rx="7" ry="31"/><path fill-opacity=".5" d="M77 7.4l7.8-1.8.2 1-7.8 1.8zM206 37l-10-10 9-6z"/><ellipse fill-opacity=".5" cx="104" cy="87" rx="18" ry="9"/><path fill-opacity=".5" d="M116 112h15v16h-15zm130.7-77.6l21.8 15.8-11.2 15.4-21.8-15.8zM88 120l-2-7-19 12zm153-34h15v20h-15zM48.8 121.9l-11.5 10.6 16 1.5-18.2 9zm14-29.4l-9.2 4-.4-1 9.2-4zM166 26l18 11-9 2z"/><ellipse fill-opacity=".5" cx="125" cy="124" rx="1" ry="1"/><path fill-opacity=".5" d="M261.7 28.6l-10.1 25-35.3-14.2 10.1-25zM143 58h10v23h-10zM60.4 3l41.3-20.2 8 16.2-41.4 20.2z"/><ellipse fill-opacity=".5" rx="1" ry="1" transform="matrix(6.69452 4.3663 -6.66208 10.21445 30.4 41.8)"/><ellipse fill-opacity=".5" cx="19" cy="38" rx="7" ry="6"/><path fill-opacity=".5" d="M47 0h6v10h-6z"/><ellipse fill-opacity=".5" cx="62" cy="74" rx="1" ry="1"/><path fill-opacity=".5" d="M159.2 38l.7.7-9 9.3-.8-.7zM213 50l32 29-76-33z"/><path stroke="#000" stroke-opacity=".5" fill="none" d="M222 41.4q29.4 7.2 38.8-11.3" stroke-width=".5"/></g></svg>