<svg xmlns="http://www.w3.org/2000/svg" viewBox="0 0 1400 692"><filter id="b"><feGaussianBlur stdDeviation="12" /></filter><path fill="#7a6586" d="M0 0h1400v689H0z"/><g filter="url(#b)" transform="translate(2.7 2.7) scale(5.46875)" fill-opacity=".5"><ellipse fill="#00163a" rx="1" ry="1" transform="rotate(-176.1 64.6 60.4) scale(218.33907 30.23778)"/><ellipse fill="#ca93b0" rx="1" ry="1" transform="rotate(3.1 -1065.5 3040.8) scale(185.71744 27.57661)"/><ellipse fill="#373759" rx="1" ry="1" transform="matrix(-34.10244 -19.02508 6.46962 -11.59678 108.4 89.3)"/><ellipse fill="#bf8296" rx="1" ry="1" transform="matrix(55.45223 24.90955 -9.67544 21.53892 195.9 15.5)"/><ellipse fill="#28486b" rx="1" ry="1" transform="matrix(-113.3135 35.07639 -7.03758 -22.73475 9.6 1.5)"/><ellipse fill="#6172a1" cx="96" cy="21" rx="71" ry="24"/><path fill="#ef98a0" d="M130.4 55.4L72.6 41l67.2 53.4 33-5z"/><path fill="#5e5681" d="M125 94l110 32 36-33z"/><path fill="#2f385c" d="M-9.1 131.8L-5.8 76l62.4 2.6L84.8 141z"/><path fill="#f8a1a7" d="M120.6 59l-13 26.4-15-.5 39.7-37z"/><path fill="#1f304f" d="M191.3 141L64.7 72.8l33-4.8-43 73z"/><ellipse fill="#ec99ac" rx="1" ry="1" transform="rotate(11.6 -386.6 398.9) scale(10.66241 5.51119)"/><path fill="#48446b" d="M119 75l-57 31h72z"/><ellipse fill="#714c59" rx="1" ry="1" transform="rotate(-67.6 129.6 -181) scale(17.26731 26.96346)"/><ellipse fill="#c78ca4" rx="1" ry="1" transform="rotate(-107.7 128.3 -36.7) scale(11.00882 34.7604)"/><ellipse fill="#98799d" rx="1" ry="1" transform="matrix(66.71556 27.78655 -6.62975 15.91805 211.2 39.5)"/><path fill="#5e5179" d="M22 100.4l44.5 2.7-17-33L3.8 92.2z"/><ellipse fill="#1a2b45" cx="61" cy="125" rx="134" ry="12"/><ellipse fill="#c7899f" rx="1" ry="1" transform="matrix(2.26014 -6.79717 76.13467 25.31563 87.3 58.5)"/><path fill="#78729d" d="M100 20h56v31h-56z"/><ellipse fill="#2c3953" rx="1" ry="1" transform="rotate(72.8 -2.3 1.7) scale(12.73446 31.18319)"/><ellipse fill="#4d5d83" cx="91" rx="57" ry="10"/></g></svg>