<svg xmlns="http://www.w3.org/2000/svg" viewBox="0 0 1400 700"><filter id="b"><feGaussianBlur stdDeviation="12" /></filter><path d="M0 0h1400v700H0z"/><g filter="url(#b)" transform="translate(2.7 2.7) scale(5.46875)"><path fill-opacity=".5" d="M214.3 123.4l18.8 5.3-20-8 3.3 1.8zM35 116h8v12h-8z"/><ellipse fill-opacity=".5" cx="56" cy="73" rx="17" ry="17"/><path fill-opacity=".5" d="M188-4l5 14 10 2zM32-14L-1 11l13 4zm-6.5 75l-9-14.2 19.5-10-5.9 28.5zM192 22h16v13h-16z"/><ellipse fill-opacity=".5" rx="1" ry="1" transform="rotate(-20.7 290.9 -528.2) scale(10.89565 3.17537)"/><ellipse fill-opacity=".5" cx="121" cy="3" rx="11" ry="23"/><path stroke="#000" stroke-opacity=".5" fill="none" d="M15.7 22.5q10 22.7-26.8 36" stroke-width=".5"/><path fill-opacity=".5" d="M234 81h15v31h-15zM20.8 129.8l-9.4-21 23.8-10.6 9.4 21zM8 3h21v22H8z"/><path fill-opacity=".5" d="M239.5 87l-4-25.8 1-.1 4 25.7zM50 21h2v13h-2zm153 9l10-3h-8z"/><path stroke="#000" stroke-opacity=".5" fill="none" d="M111 51.3q-72.2-60.5-97.2 42" stroke-width=".5"/><path fill-opacity=".5" d="M118 14h24v18h-24zM11 19h31v29H11zm163 13l-4.5 10.1L142 30l4.4-10z"/><path fill-opacity=".5" d="M99.6 36.2l4.2-26.6 26.6 4.2-4.2 26.6z"/><ellipse fill-opacity=".5" cx="250" cy="73" rx="21" ry="4"/></g></svg>