<svg xmlns="http://www.w3.org/2000/svg" viewBox="0 0 1400 700"><filter id="b"><feGaussianBlur stdDeviation="12" /></filter><path fill="#758b94" d="M0 0h1400v700H0z"/><g filter="url(#b)" transform="translate(2.7 2.7) scale(5.46875)" fill-opacity=".5"><ellipse fill="#000c00" cx="120" cy="113" rx="22" ry="76"/><ellipse fill="#eeebe9" rx="1" ry="1" transform="matrix(41.71929 -72.25992 22.43851 12.95488 64 93.2)"/><path fill="#e3f3ff" d="M184.7 130l-23.1 6.5-32.3-112.4 23.1-6.6z"/><ellipse fill="#283741" rx="1" ry="1" transform="matrix(29.49306 -10.28134 12.12093 34.77014 202.3 84.2)"/><ellipse fill="#292f30" rx="1" ry="1" transform="matrix(11.24105 100.2162 -17.55805 1.96945 5.8 87)"/><ellipse fill="#7ebded" rx="1" ry="1" transform="matrix(-109.69892 -3.87424 .59378 -16.81286 140 5)"/><path fill="#ffe" d="M20 45h27v19H20z"/><ellipse fill="#fffaf1" cx="37" cy="97" rx="15" ry="15"/><path fill="#1c282e" d="M214 22h31v18h-31z"/><path fill="#26343a" d="M-16 77l44 13.5 25.1-29.7L-16 77.4z"/><path fill="#b9cddc" d="M201 95l33 3-15 20z"/><path fill="#07433e" d="M84 142l40-121 28 122z"/><path fill="#082a44" d="M180.8 103l15.8-7.1 44 47.1h-37.1z"/><ellipse fill="#1a2931" rx="1" ry="1" transform="rotate(-132.2 129.4 -10.7) scale(9.2027 22.01161)"/><ellipse fill="#353d3e" rx="1" ry="1" transform="matrix(2.48606 5.51524 -44.9427 20.25844 17.5 43)"/><path fill="#8c8c83" d="M80.9 28.8L69.2 72.2l-26-7 11.6-43.4z"/><ellipse fill="#b7ccda" rx="1" ry="1" transform="matrix(19.07124 25.10681 -13.61056 10.33864 167.4 114)"/><path fill="#72ce8d" d="M103 100h11v18h-11z"/><path fill="#85949b" d="M143 14h68v41h-68z"/><ellipse fill="#567784" rx="1" ry="1" transform="matrix(-5.05606 -1.30759 19.06445 -73.71676 96.7 96.3)"/><path fill="#c8dae6" d="M137 56h35v25h-35z"/><path fill="#fbf9f3" d="M58.9 37.4l16.1-2-4.8-13.1-8.4 11.1z"/></g></svg>