<svg xmlns="http://www.w3.org/2000/svg" viewBox="0 0 1400 700"><filter id="b"><feGaussianBlur stdDeviation="12" /></filter><path fill="#2b2a26" d="M0 0h1400v700H0z"/><g filter="url(#b)" transform="translate(2.7 2.7) scale(5.46875)" fill-opacity=".5"><ellipse fill="#44433e" rx="1" ry="1" transform="matrix(26.30359 -8.14232 23.75156 76.72888 137.3 94.3)"/><ellipse fill="#13130e" rx="1" ry="1" transform="matrix(1.20442 -12.33345 138.22714 13.49857 162 11.6)"/><path fill="#82847e" d="M114 124h67v4h-67z"/><path fill="#777873" d="M26.1 29.8l-15.7-5 4.6-11 7.1-.4z"/><ellipse fill="#1f1e1a" cy="89" rx="52" ry="52"/><path fill="#6b6c67" d="M107.6 79l27 1-.2 7-27-1z"/><path fill="#a8aaa6" d="M227 2h6v7h-6z"/><path fill="#666862" d="M105 41h43v6h-43z"/><path fill="#292824" d="M175.4 47.2l9.8 69.3-44.6 6.3-9.8-69.3z"/><ellipse fill="#6c6d68" cx="121" cy="103" rx="14" ry="3"/><ellipse fill="#b4b6b2" cx="243" cy="6" rx="3" ry="3"/><path fill="#696a63" d="M260.2 96.1l-26.8-.8-10.7-3.7 45 2.7z"/><path fill="#73766e" d="M230 112h26v3h-26z"/><path fill="#676961" d="M217.2 56.7l-1.5-2.5 55.3 5.5v.8z"/><path fill="#6c6e67" d="M106 26l16-2-24-4z"/><path fill="#a6a9a2" d="M239 75h10v2h-10z"/><ellipse fill="#60615a" rx="1" ry="1" transform="rotate(-84.9 138.5 -108.1) scale(1.18132 20.9918)"/><path fill="#72756f" d="M105 60h18v4h-18z"/><path fill="#11100c" d="M144 3l91 8-33-27z"/><path fill="#2d2c27" d="M124 23h82v20h-82z"/><path fill="#090803" d="M262 15L245 5l3-21z"/><path fill="#1f1d19" d="M-16 23.1L17.4-16l18.4 69.8L61.5-11z"/></g></svg>