<svg xmlns="http://www.w3.org/2000/svg" viewBox="0 0 1400 800"><filter id="b"><feGaussianBlur stdDeviation="12" /></filter><path fill="#3b5161" d="M0 0h1400v798H0z"/><g filter="url(#b)" transform="translate(2.7 2.7) scale(5.46875)" fill-opacity=".5"><ellipse cx="179" cy="132" rx="238" ry="31"/><ellipse fill="#0e7bdc" rx="1" ry="1" transform="rotate(-179.9 18.2 32) scale(68.77126 39.25289)"/><path fill="#a88455" d="M119 108L263-16 24-2z"/><ellipse fill="#0873d4" cx="219" cy="67" rx="67" ry="40"/><ellipse fill="#a0ffff" cx="224" cy="33" rx="62" ry="4"/><ellipse cx="8" cy="63" rx="15" ry="19"/><path fill="#050000" d="M233 47h17v36h-17z"/><ellipse fill="#3ce3ff" cx="35" cy="33" rx="60" ry="6"/><path fill="#fff064" d="M90 29l25 34 2 49z"/><path fill="#002e6e" d="M38 30l54 10 23 87z"/><ellipse fill="#99643b" cx="29" cy="8" rx="255" ry="20"/><ellipse fill="#007dfa" rx="1" ry="1" transform="matrix(13.41616 34.45878 -15.20168 5.91861 41 64.4)"/><ellipse fill="#ffe04e" rx="1" ry="1" transform="matrix(3.015 .90515 -14.06364 46.84533 150.2 69)"/><ellipse fill="#030000" rx="1" ry="1" transform="matrix(-83.53774 19.97693 -4.64888 -19.44026 43.8 142.3)"/><ellipse fill="#172643" rx="1" ry="1" transform="matrix(-26.45938 14.60286 -6.694 -12.12908 179.3 62.3)"/><ellipse fill="#030100" rx="1" ry="1" transform="matrix(81.12364 2.0139 -.3988 16.06455 191.8 133)"/><ellipse fill="#008dff" rx="1" ry="1" transform="rotate(29.7 -16.1 436) scale(10.07193 36.27023)"/><path fill="#001f65" d="M112 60h27v22h-27z"/><ellipse fill="#03000f" cx="171" cy="14" rx="182" ry="3"/><ellipse fill="#dab167" cx="189" cy="9" rx="120" ry="4"/><ellipse fill="#7aacdb" cx="235" cy="92" rx="49" ry="7"/><path fill="#57391f" d="M182 23l-75 37-10-39z"/></g></svg>