<svg width="230px" height="230px" viewBox="0 0 230 230" version="1.1" xmlns="http://www.w3.org/2000/svg" xmlns:xlink="http://www.w3.org/1999/xlink">
    <defs>
        <path d="M7.4568944,161.616738 C5.01555503,161.81545 2.55264737,161.937911 0.0705566406,161.981734 C0.0705566406,68.5255048 0.0705566406,18.863907 0.0705566406,12.9994454 C0.0705566406,3.66162109 6.2578125,0.147460937 11.0097656,0.147460937 C15.7617188,0.147460937 21.4970703,0.147460937 24.6337891,9.10351562 C28.4300424,19.9426935 38.163269,52.3783517 38.8186035,52.3783517 C39.5717773,52.3783517 47.6595057,20.8071168 51.8291016,9.10351562 C54.2666016,2.26171875 58.1269531,0.147460937 65.8032227,0.147460937 C73.4794922,0.147460937 79.7623707,6.57275391 79.7623707,16.9255371 C79.7623707,23.8273926 79.7623707,46.4920642 79.7623707,84.9195519 L64.0783691,84.9195519 C64.2451986,48.5058988 64.3286133,26.4669596 64.3286133,18.8027344 C64.3286133,14.0722656 62.8503418,12.9994454 61.3525391,12.9994454 C59.8547363,12.9994454 58.5432129,14.6621094 57.873291,16.9255371 C54.0652671,29.7914956 45.8721974,59.6824411 41.1349455,76.955606 C40.5229297,79.1871635 38.8186035,84.9195519 35.4238281,84.9195519 C32.0290527,84.9195519 30.6853027,79.439209 29.7810459,76.7332172 C24.1181139,59.7868723 14.9829692,27.7903279 10.6496582,13.9992676 C9.85131836,11.4584961 7.4568944,12.1064453 7.4568944,13.9992676 C7.4568944,24.7817309 7.4568944,73.9875542 7.4568944,161.616738 Z" id="path-1"></path>
        <path d="M73.1044922,162.580197 C68.1084258,162.154408 63.203478,161.409202 58.4101563,160.365086 C58.4101563,113.220496 58.4101563,86.4261926 58.4101563,79.9821777 C52.4018555,88.5424805 29.5146974,89.4973852 19.4335938,83.2919922 C9.35249012,77.0865992 0.0705566406,68.4316236 0.0705566406,44.4941236 C0.0705566406,20.5566236 14.4262695,6.80322266 28.6862793,2.42675781 C42.9462891,-1.94970703 61.5043945,3.35888672 69.9331055,18.2902832 C68.244873,19.7971191 64.9460449,22.0466309 63.0705566,22.9555001 C58.7700195,14.4033203 50.6074219,5.35595703 37.4130859,8.02929687 C24.21875,10.7026367 19.5146484,28.6179199 20.2067871,48.2314453 C20.8989258,67.8449707 29.1274414,79.8100586 39.3540039,81.1586914 C49.5805664,82.5073242 56.0358941,75.0878528 58.4101563,68.7133789 C58.4101563,60.811661 58.4101563,53.0394259 58.4101563,45.3966737 L73.1044922,45.4941236 L73.1044922,162.580197 Z" id="path-3"></path>
    </defs>
    <g id="Page-1" stroke="none" stroke-width="1" fill="none" fill-rule="evenodd">
        <g id="GM-(fill)">
            <circle class="circle" id="Oval-Copy" fill="#213F5E" cx="115" cy="115" r="115"></circle>
            <g id="M" transform="translate(117.000000, 68.000000)">
                <mask id="mask-2" fill="white">
                    <use xlink:href="#path-1"></use>
                </mask>
                <use id="Combined-Shape" fill="#7498BD" xlink:href="#path-1"></use>
            </g>
            <g id="G" transform="translate(32.000000, 67.000000)">
                <mask id="mask-4" fill="white">
                    <use xlink:href="#path-3"></use>
                </mask>
                <use id="Combined-Shape" fill="#7498BD" xlink:href="#path-3"></use>
            </g>
        </g>
    </g>
</svg>